<?xml version="1.0" encoding="utf-8"?>
<!-- Generator: Adobe Illustrator 27.9.0, SVG Export Plug-In . SVG Version: 6.00 Build 0)  -->
<svg version="1.1" id="Layer_1" xmlns="http://www.w3.org/2000/svg" xmlns:xlink="http://www.w3.org/1999/xlink" x="0px" y="0px"
	 viewBox="0 0 300 300" style="enable-background:new 0 0 300 300;" xml:space="preserve">
<style type="text/css">
	.st0{fill:#9FA8DA;}
	.st1{fill:#614D4C;}
	.st2{fill:#4E3E3E;}
	.st3{fill:#FFFFFF;}
	.st4{fill:#6C5454;}
	.st5{fill:#F29853;}
	.st6{fill:#D3DEEB;}
</style>
<g>
	<g id="Layer_2_00000107561172495434412540000005703136399226388149_">
		<g id="Layer_3">
			<circle class="st0" cx="150" cy="150" r="150"/>
			<path class="st1" d="M225.4,199L74.6,221V60.7c0-8.9,7.2-16.1,16.1-16.1c0,0,0,0,0,0h126.4c4.5,0,8.2,3.7,8.2,8.2V199z"/>
			<path class="st2" d="M98,44.6h-7.2c-8.9,0-16.1,7.2-16.1,16.1c0,0,0,0,0,0V221l23.4-3.4V44.6z"/>
			<path class="st3" d="M202.3,222.3L202.3,222.3c0-9.9,8.1-18,18-18H84.6v36h135.7C210.4,240.3,202.3,232.3,202.3,222.3
				C202.3,222.3,202.3,222.3,202.3,222.3z"/>
			<path class="st4" d="M222.5,240.3H103.1c-9.8,0-18.1-7.6-18.5-17.4c-0.4-10,7.4-18.4,17.4-18.7c0.2,0,0.4,0,0.6,0h119.9
				c2.8,0,5-2.2,5-5l0,0c0-2.8-2.2-5-5-5H103.2c-14.7,0-27.3,11.1-28.5,25.8c-1.2,15.5,10.3,29,25.8,30.3c0.7,0.1,1.5,0.1,2.2,0.1
				h119.8c2.8,0,5-2.2,5-5l0,0C227.5,242.5,225.3,240.3,222.5,240.3z"/>
			<path class="st5" d="M120.6,260.7l-1.8-1.3c-1.3-0.9-3-0.9-4.3,0l-1.8,1.3c-1.7,1.2-4,0.8-5.2-0.9c-0.4-0.6-0.7-1.4-0.7-2.1V221
				h19.7v36.6c0,2.1-1.6,3.8-3.7,3.8C122,261.4,121.2,261.2,120.6,260.7z"/>
			<path class="st6" d="M190.4,224.5h-89.7c-1.9,0-3.5-1.6-3.5-3.5s1.6-3.5,3.5-3.5h89.7c1.9,0,3.5,1.6,3.5,3.5
				S192.3,224.5,190.4,224.5L190.4,224.5z"/>
		</g>
	</g>
</g>
</svg>
