<svg xmlns="http://www.w3.org/2000/svg" xmlns:xlink="http://www.w3.org/1999/xlink" viewBox="0 0 300 300"><defs><style>.cls-1{fill:none;}.cls-2{isolation:isolate;}.cls-3{mix-blend-mode:multiply;}.cls-4{fill:#8489a4;}.cls-5{clip-path:url(#clip-path);}.cls-6{fill:#4e3e3e;}.cls-7{fill:#e24c39;}.cls-8{fill:#f29853;}.cls-9{fill:#ffad76;}.cls-10{fill:#e08a4f;}.cls-11{fill:#9fa8da;}</style><clipPath id="clip-path"><circle class="cls-1" cx="150" cy="150" r="150"/></clipPath></defs><title>deviation</title><g class="cls-2"><g id="Layer_2" data-name="Layer 2"><g id="Layer_3" data-name="Layer 3" class="cls-3"><circle class="cls-4" cx="150" cy="150" r="150"/><g class="cls-5"><circle class="cls-6" cx="128.39" cy="80.16" r="28.26"/><circle class="cls-6" cx="165.05" cy="83.92" r="22.46"/><circle class="cls-6" cx="103.96" cy="105.11" r="28.1"/><circle class="cls-6" cx="99.77" cy="134.48" r="22.46"/><circle class="cls-6" cx="107.91" cy="159.81" r="13.76"/><path class="cls-7" d="M281.06,226.35l-2.55-4.92A49.47,49.47,0,0,0,211.8,200.3l-96.3,50A55.4,55.4,0,0,0,85.63,300H281.06Z"/><path class="cls-8" d="M132.8,175.59h58.59a0,0,0,0,1,0,0v38.8a26.81,26.81,0,0,1-26.81,26.81H132.8a0,0,0,0,1,0,0V175.59A0,0,0,0,1,132.8,175.59Z"/><path class="cls-9" d="M218.45,173.69c-1.08-26.08-12.39-54.21-28.39-83.29a20.39,20.39,0,0,0-26.82-10.2L147,87.39a49.06,49.06,0,0,0-28.1,55,14.38,14.38,0,0,0-8.81,21.67l4,6.36a14.44,14.44,0,0,0,18.66,5.17l2.87,6.3A23.41,23.41,0,0,0,156,195.79l38.66,1.8a22.67,22.67,0,0,0,23.8-23.9Z"/><circle class="cls-6" cx="162.39" cy="139.34" r="5.6"/><circle class="cls-6" cx="191.39" cy="123.84" r="5.6"/><path class="cls-6" d="M142.6,133.77a4.15,4.15,0,0,1-1.29-.21,4,4,0,0,1-2.5-5.07,48.47,48.47,0,0,1,9-15.79,4,4,0,1,1,6.06,5.22,40.67,40.67,0,0,0-7.5,13.13A4,4,0,0,1,142.6,133.77Z"/><path class="cls-6" d="M188.75,109.16a3.9,3.9,0,0,1-1.25-.21,25.77,25.77,0,0,0-9.59-1.21,4,4,0,0,1-.53-8A34,34,0,0,1,190,101.36a4,4,0,0,1-1.26,7.8Z"/><path class="cls-10" d="M194.94,180.6a6.6,6.6,0,0,1,0-13.2,2.5,2.5,0,0,1,0,5,1.6,1.6,0,0,0,0,3.2,1.59,1.59,0,0,0,1.13-.47,2.5,2.5,0,1,1,3.54,3.54A6.6,6.6,0,0,1,194.94,180.6Z"/><path class="cls-10" d="M191.39,160.14a2.5,2.5,0,0,1-.95-4.82l5.88-2.39a.8.8,0,0,0,.33-1.23L184.46,136a2.5,2.5,0,1,1,3.94-3.07l12.2,15.7a5.8,5.8,0,0,1-2.39,8.92L192.33,160A2.43,2.43,0,0,1,191.39,160.14Z"/><path class="cls-11" d="M182.11,48.61a14.58,14.58,0,0,1-3.07-.34,13.93,13.93,0,0,1-8.8-6.16,11.64,11.64,0,0,1,3.56-16.06,9.73,9.73,0,0,1,13.4,3,8.17,8.17,0,0,1-2.5,11.27,6.93,6.93,0,0,1-9.57-2.12A2,2,0,0,1,178.5,36a2.94,2.94,0,0,0,4.05.9,4.15,4.15,0,0,0,1.27-5.75A5.7,5.7,0,0,0,176,29.43,7.63,7.63,0,0,0,173.61,40,10.05,10.05,0,0,0,187.47,43a13,13,0,0,0,4-18,2,2,0,0,1,3.38-2.15,17,17,0,0,1-5.22,23.53A13.88,13.88,0,0,1,182.11,48.61Z"/><path class="cls-11" d="M82.06,253.53A30.79,30.79,0,0,1,51.44,225.3,37.8,37.8,0,0,1,86,184.52a2.5,2.5,0,1,1,.41,5,32.8,32.8,0,0,0-30,35.39,25.77,25.77,0,0,0,27.77,23.55,20.12,20.12,0,0,0,18.38-21.68,15.57,15.57,0,0,0-16.8-14.25,12,12,0,0,0-10.94,12.91,9.07,9.07,0,0,0,9.78,8.29,2.5,2.5,0,1,1,.41,5,14.08,14.08,0,0,1-15.17-12.86,17,17,0,0,1,15.51-18.3,20.57,20.57,0,0,1,22.2,18.82,25.12,25.12,0,0,1-23,27.07C83.75,253.49,82.9,253.53,82.06,253.53Z"/><path class="cls-11" d="M26.59,180.82a2,2,0,0,1-2-2A23,23,0,0,1,47.52,155.9a2,2,0,1,1,0,4,19,19,0,0,0-18.93,18.92A2,2,0,0,1,26.59,180.82Z"/><path class="cls-11" d="M219.25,109.09a2,2,0,0,1-.95-3.76l16.48-8.81a2,2,0,1,1,1.89,3.53l-16.48,8.81A2,2,0,0,1,219.25,109.09Z"/><path class="cls-11" d="M122.81,42.61a2,2,0,0,1-2-1.76l-2.18-18.56a2,2,0,1,1,4-.46l2.19,18.55A2,2,0,0,1,123,42.6Z"/><path class="cls-11" d="M201.31,73.28a2,2,0,0,1-1.41-3.42c3-3,6.21-3,8.76-3.07,2.27,0,4.07,0,6-1.9s1.89-3.68,1.9-6c0-2.54,0-5.72,3.08-8.76s6.21-3.06,8.76-3.08c2.28,0,4.08,0,6-1.9A2,2,0,0,1,237.14,48c-3,3-6.22,3.06-8.77,3.07-2.27,0-4.07,0-6,1.91s-1.89,3.68-1.91,6c0,2.54,0,5.72-3.07,8.76s-6.22,3.06-8.76,3.07c-2.28,0-4.08,0-6,1.9A2,2,0,0,1,201.31,73.28Z"/><path class="cls-11" d="M36.09,121.07c-4,0-6.2-2-8-3.66s-3-2.74-5.67-2.62a2,2,0,1,1-.18-4c4.3-.18,6.65,1.94,8.54,3.65,1.69,1.53,3,2.72,5.67,2.62s3.89-1.44,5.43-3.11c1.73-1.87,3.89-4.19,8.19-4.38s6.65,1.94,8.54,3.65c1.69,1.52,3,2.72,5.68,2.61a2,2,0,0,1,.17,4c-4.31.18-6.65-1.94-8.54-3.65-1.68-1.53-3-2.73-5.68-2.62s-3.88,1.44-5.42,3.11c-1.73,1.87-3.89,4.2-8.19,4.38Z"/><path class="cls-11" d="M76.88,74.72a2,2,0,0,1-1.07-.31c-3-1.93-3.63-4.49-4.1-6.54-.4-1.75-.69-3-2.35-4.06s-2.92-.78-4.67-.4c-2.06.45-4.63,1-7.67-.92S53.4,58,52.93,55.94c-.41-1.74-.69-3-2.35-4a2,2,0,0,1,2.15-3.38c3,1.93,3.62,4.49,4.09,6.54.4,1.75.69,3,2.35,4.06s2.92.78,4.67.39c2.06-.44,4.62-1,7.67.93s3.63,4.49,4.1,6.54C76,68.72,76.3,70,78,71a2,2,0,0,1,.62,2.76A2,2,0,0,1,76.88,74.72Z"/></g></g></g></g></svg>