<svg xmlns="http://www.w3.org/2000/svg" xmlns:xlink="http://www.w3.org/1999/xlink" viewBox="0 0 300 300"><defs><style>.cls-1{fill:none;}.cls-2{fill:url(#linear-gradient);}.cls-3{clip-path:url(#clip-path);}.cls-4{fill:#4e3e3e;}.cls-5{fill:#ef7c2e;}.cls-6{fill:#d37554;}.cls-7{fill:#884c34;}.cls-8{fill:#77412f;}.cls-9{fill:#ab6243;}.cls-10{fill:#e9dada;}.cls-11{fill:#d1c5c5;}.cls-12{fill:#f29853;}.cls-13{fill:#6c5454;}.cls-14{clip-path:url(#clip-path-2);}</style><linearGradient id="linear-gradient" x1="-127.81" y1="233.42" x2="584.67" y2="19.47" gradientUnits="userSpaceOnUse"><stop offset="0" stop-color="#00a0ee"/><stop offset="1" stop-color="#81e5ff"/></linearGradient><clipPath id="clip-path"><circle class="cls-1" cx="150" cy="150" r="150"/></clipPath><clipPath id="clip-path-2"><path class="cls-1" d="M119.24,70.62V115.4a8,8,0,0,0,15.94,0v5a8,8,0,0,0,15.94,0v2.22a8,8,0,0,0,8,8h0a8,8,0,0,0,8-8v-2.22a8,8,0,0,0,8,8h0a8,8,0,0,0,8-8V70.62Z"/></clipPath></defs><title>bis</title><g id="Layer_2" data-name="Layer 2"><g id="Layer_1-2" data-name="Layer 1"><circle class="cls-2" cx="150" cy="150" r="150"/><g class="cls-3"><rect class="cls-4" x="80.74" width="138.51" height="298.79"/><path class="cls-5" d="M182.9,48.9a8,8,0,0,0-15.71,2.71l10.37,60.17a8,8,0,0,0,15.71-2.71Z"/><path class="cls-6" d="M178.45,92.58H126.71a26.87,26.87,0,0,0-26.84,26.84v20.7h16.51v-20.7a10.33,10.33,0,0,1,10.32-10.32h51.74a10.33,10.33,0,0,1,10.32,10.32v20.7h16.51v-20.7A26.87,26.87,0,0,0,178.45,92.58Z"/><path class="cls-7" d="M234.24,284.86V216.58A18.63,18.63,0,0,0,215.67,198H84.33a18.63,18.63,0,0,0-18.58,18.58v68.28A18.58,18.58,0,0,0,73.62,300H226.38A18.58,18.58,0,0,0,234.24,284.86Z"/><path class="cls-8" d="M151.68,260.85h65.74a25,25,0,0,0,16.83-6.5V223.46a18.63,18.63,0,0,0-18.58-18.58H109.09V198H84.33a18.63,18.63,0,0,0-18.58,18.58v68.28A18.58,18.58,0,0,0,73.62,300h35.61A42.58,42.58,0,0,1,151.68,260.85Z"/><path class="cls-9" d="M230.8,137H69.2a15.76,15.76,0,0,0-15.72,16.85l4.11,59.57a25.05,25.05,0,0,0,25,23.33H217.42a25.05,25.05,0,0,0,25-23.33l4.11-59.57A15.76,15.76,0,0,0,230.8,137Z"/><path class="cls-6" d="M236.56,145a3.49,3.49,0,0,0-3.73,3.25l-.41,6a3.5,3.5,0,0,0,3.25,3.73h.24a3.5,3.5,0,0,0,3.49-3.26l.41-6A3.5,3.5,0,0,0,236.56,145Z"/><path class="cls-6" d="M83.67,218.12a18.92,18.92,0,0,1-8.45-5.78,3.5,3.5,0,1,0-5.36,4.5,25.92,25.92,0,0,0,11.58,7.92,3.5,3.5,0,1,0,2.24-6.63Z"/><path class="cls-6" d="M107,219.11H94.71a3.5,3.5,0,0,0,0,7H107a3.5,3.5,0,1,0,0-7Z"/><path class="cls-6" d="M71,203c-.07-.5-.13-1-.16-1.51L70.12,191a3.5,3.5,0,1,0-7,.48L63.86,202c0,.69.12,1.38.22,2.06A3.5,3.5,0,0,0,71,203Z"/><path class="cls-6" d="M65.78,182.51H66a3.5,3.5,0,0,0,3.25-3.73l-.85-12.26a3.5,3.5,0,0,0-7,.48l.85,12.26A3.5,3.5,0,0,0,65.78,182.51Z"/><path class="cls-6" d="M131.58,219.11H119.29a3.5,3.5,0,0,0,0,7h12.29a3.5,3.5,0,0,0,0-7Z"/><path class="cls-6" d="M205.33,219.11H193a3.5,3.5,0,1,0,0,7h12.29a3.5,3.5,0,0,0,0-7Z"/><path class="cls-6" d="M233.61,187.74a3.49,3.49,0,0,0-3.73,3.25l-.73,10.51c0,.49-.09,1-.16,1.47a3.5,3.5,0,0,0,3,4,3.55,3.55,0,0,0,.52,0,3.5,3.5,0,0,0,3.46-3c.1-.66.17-1.34.22-2l.73-10.51A3.5,3.5,0,0,0,233.61,187.74Z"/><path class="cls-6" d="M235.3,163.22a3.5,3.5,0,0,0-3.73,3.25l-.85,12.26a3.5,3.5,0,0,0,3.25,3.73h.24a3.5,3.5,0,0,0,3.49-3.26l.85-12.26A3.5,3.5,0,0,0,235.3,163.22Z"/><path class="cls-6" d="M224.81,212.32a18.93,18.93,0,0,1-8.44,5.8,3.5,3.5,0,1,0,2.25,6.63,25.92,25.92,0,0,0,11.57-7.94,3.5,3.5,0,1,0-5.37-4.49Z"/><path class="cls-6" d="M156.17,219.11H143.88a3.5,3.5,0,0,0,0,7h12.29a3.5,3.5,0,0,0,0-7Z"/><path class="cls-6" d="M180.75,219.11H168.46a3.5,3.5,0,1,0,0,7h12.29a3.5,3.5,0,0,0,0-7Z"/><path class="cls-6" d="M63.44,145a3.5,3.5,0,0,0-3.25,3.73l.41,6A3.5,3.5,0,0,0,64.09,158h.24a3.5,3.5,0,0,0,3.25-3.73l-.41-6A3.49,3.49,0,0,0,63.44,145Z"/><path class="cls-6" d="M166.54,197.49H132.43a9.3,9.3,0,0,0-9.3,9.3V228h52.72V206.79A9.3,9.3,0,0,0,166.54,197.49Z"/><path class="cls-10" d="M127.06,240.4a17.27,17.27,0,0,0,16.46,12.05h11.92a17.27,17.27,0,0,0,16.46-12.05L175.84,228H123.12Z"/><polygon class="cls-11" points="125.74 236.24 173.22 236.24 175.84 227.98 123.12 227.98 125.74 236.24"/><rect class="cls-12" x="167.07" y="51.37" width="15.94" height="77" rx="7.97" ry="7.97"/><path class="cls-12" d="M119.24,115.4a8,8,0,0,0,15.94,0v5a8,8,0,0,0,15.94,0v2.22a8,8,0,0,0,8,8h0a8,8,0,0,0,8-8v-2.22a8,8,0,0,0,8,8h0a8,8,0,0,0,8-8V62.47H119.24Z"/><path class="cls-5" d="M119.24,89.87C131.16,70.95,155.61,65.16,183,62.47H119.24Z"/><rect class="cls-10" x="115.33" y="33.75" width="71.6" height="29.53"/><path class="cls-13" d="M118.68,42.94h67.8a10.35,10.35,0,0,0,10.32-10.32V0H108.36V32.61A10.35,10.35,0,0,0,118.68,42.94Z"/><g class="cls-14"><path class="cls-5" d="M140,111.88v-8.29a4.87,4.87,0,0,0-4.87-4.87v38.51h15.94V122.55h-.4A10.67,10.67,0,0,1,140,111.88Z"/><path class="cls-5" d="M124.12,110.26V102a4.87,4.87,0,0,0-4.87-4.87v38.51h15.94V120.92h-.4A10.67,10.67,0,0,1,124.12,110.26Z"/><path class="cls-5" d="M156,113.76v-8.29a4.87,4.87,0,0,0-4.87-4.87h0v38.51h15.94V124.43h-.4A10.67,10.67,0,0,1,156,113.76Z"/><path class="cls-5" d="M171.95,113.76v-8.29a4.87,4.87,0,0,0-4.87-4.87v38.51H183V124.43h-.4A10.67,10.67,0,0,1,171.95,113.76Z"/></g></g></g></g></svg>