<svg xmlns="http://www.w3.org/2000/svg" xmlns:xlink="http://www.w3.org/1999/xlink" viewBox="0 0 300 300.9"><defs><style>.cls-1{fill:#dd86e3;}.cls-2{isolation:isolate;}.cls-3{mix-blend-mode:multiply;}.cls-4{fill:#2fbaba;}.cls-5{clip-path:url(#clip-path);}.cls-6{fill:#b564a9;}.cls-7{fill:#f2a6ff;}.cls-8{fill:#ffcc24;}.cls-9{fill:#ab6243;}.cls-10{fill:#884c34;}.cls-11{fill:#f29853;}.cls-12{fill:#ffad76;}.cls-13{fill:#fff;}.cls-14{fill:#ffe265;}.cls-15{fill:#4e3e3e;}</style><clipPath id="clip-path"><circle class="cls-1" cx="150" cy="150.29" r="150"/></clipPath></defs><title>relationship</title><g class="cls-2"><g id="Layer_2" data-name="Layer 2"><g id="Layer_3" data-name="Layer 3" class="cls-3"><circle class="cls-4" cx="150" cy="150" r="150"/><circle class="cls-1" cx="150" cy="150.29" r="150"/><g class="cls-5"><path class="cls-6" d="M276.37,300.9a22.29,22.29,0,0,0-2.47-13l-27.22-51.68H215V300.9Z"/><path class="cls-7" d="M288.17,174.43l-7.95-17.22V118.26h-57v72.27h-8.84v51.9h26A6.49,6.49,0,0,0,246.9,236V204.31a2.85,2.85,0,0,1,3.29-2.82l13.69,2.14a14.15,14.15,0,0,0,16.34-14V182.1l5.92-2.46A3.89,3.89,0,0,0,288.17,174.43Z"/><path class="cls-6" d="M252.5,153.77h2.7a26.37,26.37,0,0,0,26.37-26.37h0a39.39,39.39,0,0,0-39.28-39.28H230a53.38,53.38,0,0,0-53.22,53.22v47.72a39.39,39.39,0,0,0,39.28,39.28h0a10.05,10.05,0,0,0,10.06-10.06V180.13A26.36,26.36,0,0,1,252.5,153.77Z"/><path class="cls-6" d="M86.42,81.54a58.55,58.55,0,0,0-15.22.87A20.24,20.24,0,0,1,48.66,70.83c-.22-.5-.4-1-.56-1.4a3.92,3.92,0,0,0-3.3-2.67,3.75,3.75,0,0,0-4.06,3.74v5.78A34.82,34.82,0,0,0,51,100.92l.2,0v88.06A58.23,58.23,0,1,0,86.42,81.54Z"/><path class="cls-7" d="M105.79,157.18a8.28,8.28,0,0,0-7-2.11,3.91,3.91,0,0,1-4.27-4.51l1-6.49A12.07,12.07,0,0,0,91,132.73L51.09,101.57,39.78,134.8,24.53,146.94a5.46,5.46,0,0,0,0,8.59l6.44,5-7.83,23A13.18,13.18,0,0,0,37.05,200.9l12.79-1.34L45.72,231.5l36.7,4.73,5.63-43.64,2.35-15.24c3.85,1.21,9-.33,12.91-4.26C108.39,168,109.5,160.89,105.79,157.18Z"/><path class="cls-6" d="M118.55,269.6,120.78,244a26,26,0,0,0-27.39-29.68l-31.2,1.94c-24.13,1.51-43.94,29.52-47.81,53.31Z"/><path class="cls-8" d="M230.57,300.9V221.44a33.68,33.68,0,0,0-21.26-31.3l-28.74-15.39H125.81L85.33,188.53a43.55,43.55,0,0,0-29.52,41.22V300.9Z"/><path class="cls-9" d="M202.36,101.15V66.77c0-16.26-15.05-29.45-33.61-29.45H137c-18.56,0-33.6,13.19-33.6,29.45v34.38Z"/><path class="cls-9" d="M202.36,101.15V66.77c0-16.26-15.05-29.45-33.61-29.45H137c-18.56,0-33.6,13.19-33.6,29.45v34.38Z"/><path class="cls-10" d="M164.21,37.32H137c-18.56,0-33.6,13.19-33.6,29.45v34.38h60.85Z"/><path class="cls-11" d="M180.57,183V161.31H125.15v7.13a30.14,30.14,0,0,0,30.14,30.14H165A15.61,15.61,0,0,0,180.57,183Z"/><rect class="cls-11" x="98.96" y="96.74" width="21.04" height="32.77" rx="10.52"/><rect class="cls-11" x="185.7" y="96.74" width="21.04" height="32.77" rx="10.52" transform="translate(392.45 226.24) rotate(180)"/><path class="cls-12" d="M180.28,163.69l-7.56,5a35.73,35.73,0,0,1-19.86,6h0a35.76,35.76,0,0,1-19.87-6l-7.56-5a35.8,35.8,0,0,1-15.94-29.79V95.77a29.45,29.45,0,0,1,29.44-29.45h27.85a29.46,29.46,0,0,1,29.45,29.45V133.9A35.81,35.81,0,0,1,180.28,163.69Z"/><path class="cls-10" d="M164.21,63.32H138.73a29.46,29.46,0,0,0-29.45,29.45v3.87H130.9a33.31,33.31,0,0,0,33.31-33.32Z"/><path class="cls-13" d="M141.33,141.17c-2.55-.52-4.76,1.56-3.7,3.49,2.58,4.67,8.44,8,15.23,8h0c6.78,0,12.64-3.29,15.22-8,1.07-1.93-1.15-4-3.7-3.49A56.64,56.64,0,0,1,141.33,141.17Z"/><path class="cls-10" d="M164.21,40.11V33.55a5.47,5.47,0,1,0-10.93,0v6.56Z"/><path class="cls-14" d="M103.36,300.9V219.67c0-16-10.7-29.13-23.77-29.13s-23.78,13.11-23.78,29.13V300.9Z"/><circle class="cls-15" cx="172.46" cy="109.26" r="6.1"/><circle class="cls-15" cx="131.26" cy="109.26" r="6.1"/><rect class="cls-9" x="162.78" y="89.2" width="19.16" height="8.31" rx="4.16"/></g></g></g></g></svg>