<?xml version="1.0" encoding="UTF-8"?>
<svg id="Layer_1" data-name="Layer 1" xmlns="http://www.w3.org/2000/svg" viewBox="0 0 360.26 385.67">
  <defs>
    <style>
      .cls-1 {
        fill: #a0616a;
      }

      .cls-1, .cls-2, .cls-3, .cls-4, .cls-5, .cls-6, .cls-7, .cls-8 {
        stroke-width: 0px;
      }

      .cls-2 {
        fill: #654fd3;
      }

      .cls-3 {
        fill: #e6e6e6;
      }

      .cls-4 {
        fill: #393647;
      }

      .cls-5 {
        fill: #ccc;
      }

      .cls-6 {
        fill: #fff;
      }

      .cls-7 {
        fill: #3f3d56;
      }

      .cls-8 {
        fill: #2f2e41;
      }
    </style>
  </defs>
  <g>
    <path class="cls-6" d="m347.91,38.91H118.38c-6.81,0-12.34,5.53-12.34,12.34v84.32c0,6.81,5.53,12.34,12.34,12.34h229.53c6.81,0,12.34-5.53,12.34-12.34V51.25c0-6.81-5.53-12.34-12.34-12.34Z"/>
    <path class="cls-7" d="m347.91,38.91H118.38c-6.81,0-12.34,5.53-12.34,12.34v84.32c0,6.81,5.53,12.34,12.34,12.34h229.53c6.81,0,12.34-5.53,12.34-12.34V51.25c0-6.81-5.53-12.34-12.34-12.34Zm11.04,96.66c0,6.09-4.95,11.04-11.04,11.04H118.38c-6.09,0-11.04-4.95-11.04-11.04V51.25c0-6.09,4.95-11.04,11.04-11.04h229.53c6.09,0,11.04,4.95,11.04,11.04v84.32Z"/>
  </g>
  <path class="cls-2" d="m129.13,77.34h204c1.93,0,3.5,1.57,3.5,3.5h0c0,1.93-1.57,3.5-3.5,3.5h-204c-1.93,0-3.5-1.57-3.5-3.5h0c0-1.93,1.57-3.5,3.5-3.5Z"/>
  <path class="cls-2" d="m129.13,100.34h74c1.93,0,3.5,1.57,3.5,3.5h0c0,1.93-1.57,3.5-3.5,3.5h-74c-1.93,0-3.5-1.57-3.5-3.5h0c0-1.93,1.57-3.5,3.5-3.5Z"/>
  <g>
    <circle class="cls-2" cx="237.63" cy="103.34" r="14"/>
    <path class="cls-6" d="m244.91,95.14c-.67-.39-1.69-.19-2.05.54-1.66,3.3-3.33,6.59-4.99,9.89-1.34-2.1-3.06-3.94-5.05-5.48-.64-.5-1.68-.1-2.05.54-.45.77-.11,1.56.54,2.05,2.32,1.79,4.11,4.21,5.32,6.87.46,1.01,2.11.95,2.59,0,2.08-4.12,4.16-8.24,6.24-12.36.36-.72.19-1.63-.54-2.05,0,0,0,0,0,0Z"/>
  </g>
  <g>
    <path class="cls-3" d="m292.84,172.92h-33.72c-2.09,0-3.8-1.7-3.8-3.8-4.46-13.03-4.37-25.8,0-38.32,0-2.09,1.7-3.8,3.8-3.8h33.72c2.09,0,3.8,1.7,3.8,3.8v38.32c0,2.09-1.7,3.8-3.8,3.8h0Z"/>
    <path class="cls-6" d="m266.35,128.13c-5.46,0-9.89,4.43-9.89,9.89v30.28c0,1.92,1.56,3.48,3.48,3.48h18.65c9.35,0,16.93-7.58,16.93-16.93v-23.25c0-1.92-1.56-3.48-3.48-3.48h-25.68Z"/>
    <g>
      <path class="cls-3" d="m283.84,139.27h-15.79c-.4,0-.72-.32-.72-.72s.32-.72.72-.72h15.79c.4,0,.72.32.72.72s-.32.72-.72.72Z"/>
      <path class="cls-3" d="m283.84,154.66h-15.79c-.4,0-.72-.32-.72-.72s.32-.72.72-.72h15.79c.4,0,.72.32.72.72s-.32.72-.72.72Z"/>
      <path class="cls-3" d="m292.31,146.97h-32.73c-.4,0-.72-.32-.72-.72s.32-.72.72-.72h32.73c.4,0,.72.32.72.72s-.32.72-.72.72Z"/>
    </g>
    <path class="cls-3" d="m292.69,160.92h-13.66c-.4,0-.72-.32-.72-.72s.32-.72.72-.72h13.66c.4,0,.72.32.72.72s-.32.72-.72.72Z"/>
  </g>
  <path class="cls-4" d="m60.52,68.07c.89-4.1,1.15-1.08,3.08-4.79-1.33,4.8,1.12,3.23,4.37,6.99,22.84,3.58,24.28-4.24,32.74-4h.04c1.86-.03,2.82-2.26,1.69-3.74-2.77-3.67-5.82-9.32-2.93-12.88,5.12-6.31.61-19.24-1.6-16.45,0-10.79-13.28-17.86-18.44-16.11-9.52,3.24-18.34,7.61-19.41,17.38-.17,1.53-.38,3.04-.66,4.55-.56,3.07-2.85,3.88-2.06,6.89l2.47,2.51c1.16,4.42.79,9.06-.79,13.35-.88,2.37-1,4.4,1.49,6.3Z"/>
  <circle id="b" class="cls-1" cx="84.3" cy="39.28" r="14.32"/>
  <g>
    <polygon class="cls-1" points="61.99 365.7 69.37 365.87 73.48 332.74 62.6 332.49 61.99 365.7"/>
    <path class="cls-8" d="m87.29,381.08h0c0,1.25-.88,2.26-1.97,2.26h-14.64s-1.44-5.79-7.31-8.28l-.41,8.28h-7.55l.91-13.32s-2.02-7.12,2.17-10.77c4.19-3.64.8-3.13.8-3.13l1.65-8.24,11.41,1.34.08,12.94,5.54,12.84,8.12,4.01c.72.36,1.19,1.17,1.19,2.07h0s0,0,0,0Z"/>
  </g>
  <g>
    <polygon class="cls-1" points="70.1 335.64 75.96 340.12 98.79 315.77 90.15 309.15 70.1 335.64"/>
    <path class="cls-8" d="m81.49,362.97h0c-.73,1.01-2.04,1.3-2.92.66l-11.83-8.62s2.25-5.53-1.03-11l-5.2,6.45-6.1-4.45,8.58-10.22s2.56-6.95,8.1-7.42c5.53-.47,2.49-2.06,2.49-2.06l6.19-5.69,8.43,7.8-7.55,10.51-3.09,13.64,4.2,8.03c.37.71.27,1.65-.26,2.37,0,0,0,0,0,0Z"/>
  </g>
  <path class="cls-4" d="m49,196.31c.44,1.82-.37,10.31.08,13.23,1.16,7.42,11.8,47.89,9.97,59.42-6.72,42.27,2.58,69.38,2.58,69.38h15l8-128,7.81,10.29,15.28,45.63-27.03,48.59,14.11,11.65,42.13-66.99-29.94-112.06-1.81-6.77-40.45-1.13,2.25,3.37-5.12,5.06s0,.01-.03.04c-.79,1.1-18.32,25.77-12.82,48.28h0s0,0,0,0Z"/>
  <path class="cls-1" d="m61.83,148.03c4.69,1.67,36.35-.05,45.17-.58l-1.81-6.77-40.45-1.13,2.25,3.37-5.12,5.06s0,.01-.03.04h0s0,0,0,0Z"/>
  <path class="cls-2" d="m114.19,93.84h0l-1.46,7.73-.35,1.85-7.75,15.91,1.02,23.32c.65,2.73-26.87-3.46-41.16,2.93l-11.13-53.22,11.28-24.53,8.83-4.91,1.47-5.89h18.71c1,4.67-.08,6.96-2.02,8.29l4.69,12.5,17.87,16.01s0,0,0,0Z"/>
  <g>
    <path class="cls-1" d="m128.82,48.24h0c-.23,2-.9,3.79-1.81,5.13l-1,19.21-9.13-.74,2-19.41c-.59-1.52-.83-3.41-.6-5.41.53-4.57,3.32-8.01,6.23-7.67,2.91.34,4.84,4.32,4.31,8.89h0Z"/>
    <path class="cls-2" d="m92.44,68.43l1.19,2.91s-17.4-1.74-17.03,7.34c.32,7.75,33.07,38.47,34.63,39.19h0c4.64,2.12,10.02-.73,10.86-5.76,7.37-19.03,8.9-36.18,5.53-51.77h-10l-3.26,12.29-.18,9.35-5.27,11.25-17.29-21.9.81-2.91h0Z"/>
  </g>
  <path class="cls-1" d="m34.46,175.22c.64-1.96.79-3.9.51-5.54l7.3-18.28-8.8-3.22-6.46,18.89c-1.2,1.16-2.23,2.81-2.87,4.77-1.47,4.48-.35,8.86,2.5,9.8,2.85.93,6.35-1.94,7.82-6.41h0s0,0,0,0Z"/>
  <path class="cls-2" d="m76.59,68.44s-10.8-4.1-16.94.91c-2.53,2.06-13.71,16.29-15.44,35.44-.14,1.5-1.16,2.79-1.73,4.2-3.55,8.66-9.67,12.64-12.27,20.05-1.02,2.89.85,10.37.21,12.87-3.36,13.07-2.15,20.52-2.15,20.52l9.08,3.02,4.92-3.48,8.09-29.54,26.22-63.98h0Z"/>
  <g>
    <path class="cls-3" d="m157.84,45.92h-33.72c-2.09,0-3.8-1.7-3.8-3.8-4.46-13.03-4.37-25.8,0-38.32,0-2.09,1.7-3.8,3.8-3.8h33.72c2.09,0,3.8,1.7,3.8,3.8v38.32c0,2.09-1.7,3.8-3.8,3.8Z"/>
    <path class="cls-6" d="m131.35,1.13c-5.46,0-9.89,4.43-9.89,9.89v30.28c0,1.92,1.56,3.48,3.48,3.48h18.65c9.35,0,16.93-7.58,16.93-16.93V4.61c0-1.92-1.56-3.48-3.48-3.48,0,0-25.68,0-25.68,0Z"/>
    <g>
      <path class="cls-3" d="m148.84,12.27h-15.79c-.4,0-.72-.32-.72-.72s.32-.72.72-.72h15.79c.4,0,.72.32.72.72s-.32.72-.72.72Z"/>
      <path class="cls-3" d="m148.84,27.66h-15.79c-.4,0-.72-.32-.72-.72s.32-.72.72-.72h15.79c.4,0,.72.32.72.72s-.32.72-.72.72Z"/>
      <path class="cls-3" d="m157.31,19.97h-32.73c-.4,0-.72-.32-.72-.72s.32-.72.72-.72h32.73c.4,0,.72.32.72.72s-.32.72-.72.72Z"/>
    </g>
    <path class="cls-3" d="m157.69,33.92h-13.66c-.4,0-.72-.32-.72-.72s.32-.72.72-.72h13.66c.4,0,.72.32.72.72s-.32.72-.72.72Z"/>
  </g>
  <path class="cls-5" d="m0,384.48c0,.66.53,1.19,1.19,1.19h218.29c.66,0,1.19-.53,1.19-1.19s-.53-1.19-1.19-1.19H1.19c-.66,0-1.19.53-1.19,1.19Z"/>
  <path class="cls-4" d="m88.18,22.34h-2.92c-8.53,0-23.1,12.07-17.46,20.53-4.82,12.85-4.99,19.53-2.95,23.03.75,1.29,2.25,1.87,3.73,1.77.2-.01.4-.02.6-.01,1.44.05,3.38,6.82,4.72,7.34l3.56-1.08,5.84-5.84-2.96-8.9-5.74-4.49.78-10.39c-3.84-8.82.34-9.26,2.69-12.1l.24,9.13,3.37-3.25c2.74.07,5.95,1.26,8.08-1.21,3.87-4.53,7.88.94,12.45,2.04l1.42-1.12c.05-2.55-.33-5-1.06-7.21-.34-1.04-1.22-1.89-1.26-2.92-.14-3.87-7.44-7.61-13.13-5.32h0Z"/>
</svg>