<?xml version="1.0" encoding="UTF-8"?>
<svg id="Layer_1" data-name="Layer 1" xmlns="http://www.w3.org/2000/svg" viewBox="0 0 434.12 761.19">
  <defs>
    <style>
      .cls-1 {
        fill: #654fd3;
      }

      .cls-1, .cls-2, .cls-3, .cls-4, .cls-5, .cls-6, .cls-7, .cls-8, .cls-9 {
        stroke-width: 0px;
      }

      .cls-2 {
        fill: #e6e6e6;
      }

      .cls-3 {
        fill: #393647;
      }

      .cls-4 {
        fill: #ccc;
      }

      .cls-5 {
        fill: #fff;
      }

      .cls-6 {
        fill: #3f3d56;
      }

      .cls-7 {
        fill: #ffc5a0;
      }

      .cls-8 {
        fill: #f2f2f2;
      }

      .cls-9 {
        fill: #2f2e41;
      }
    </style>
  </defs>
  <path class="cls-2" d="m87.67,81.4l-13.04-57.87-4.25-18.85c-.73-3.24-3.96-5.27-7.19-4.53l-6.42,1.45L5.24,13.23C2.01,13.95-.02,17.17.71,20.4c0,0,0,0,0,0-2.77,25.75,2.7,49.5,14.55,71.73.88,1.66,1.8,3.33,2.77,4.99.25,1.15.85,2.2,1.7,3.01,1.46,1.39,3.51,1.96,5.48,1.52l6.76-1.52,4.17-.95,47.02-10.61c3.23-.73,5.26-3.94,4.53-7.18Z"/>
  <path class="cls-5" d="m82.28,78.18l-12.43-55.05-2.98-13.22c-.68-3.03-3.69-4.93-6.72-4.25l-3.96.89L10.35,16.9c-3.03.68-4.93,3.69-4.25,6.72.4,20.04,2.5,38.23,11.13,49.33,2,8.79,8.56,15.82,17.19,18.43.11.04.19.07.3.1.07.02.16.05.23.07,3.99,1.12,8.19,1.23,12.24.32l30.84-6.97c3.03-.68,4.93-3.69,4.25-6.72Z"/>
  <path class="cls-1" d="m36.6,35.26c2.08-2.4,5.5-3.15,8.4-1.83,3.06,1.53,4.25,4.78,3.76,8.01-.55,3.61-2.43,6.9-2.6,10.6-.15,3.24,1.06,6.64,3.92,8.38,2.06,1.25,4.17-1.84,2.11-3.1-3.4-2.07-2.26-6.6-1.27-9.7,1.23-3.87,2.51-7.81.99-11.79-2.23-5.51-8.5-8.17-14.01-5.94-1.42.57-2.7,1.44-3.76,2.55-1.62,1.75.82,4.6,2.46,2.82h0Z"/>
  <circle class="cls-1" cx="53.11" cy="67.46" r="3.75"/>
  <path class="cls-2" d="m288.91,724.22l-59.32-.35-19.32-.11c-3.32-.02-6.04,1.25-6.08,2.82l-.08,3.12-.65,25.05c-.05,1.57,2.61,2.86,5.93,2.88,24.2,3.96,48.84,4.36,73.15,1.19,1.82-.22,3.65-.46,5.49-.73,1.12.02,2.24-.14,3.32-.45,1.64-.51,2.72-1.37,2.75-2.36l.09-3.29.05-2.03.59-22.86c.04-1.57-2.63-2.87-5.93-2.88Z"/>
  <path class="cls-5" d="m284.53,726.35l-56.43-.33-13.55-.08c-3.1-.02-5.66,1.16-5.7,2.63l-.05,1.92-.58,22.29c-.04,1.47,2.45,2.68,5.55,2.7,19.59,2.02,37.77,3.05,50.56.29,9.32.05,17.53-2.33,21.92-5.9.06-.04.11-.08.17-.13.03-.03.09-.07.12-.1,1.81-1.33,2.95-3.38,3.15-5.61l.38-15c.04-1.47-2.45-2.68-5.55-2.7Z"/>
  <path class="cls-2" d="m232.18,742.7c-1.73-1.23-1.91-2.9.17-4.08,2.2-1.24,5.63-1.43,8.66-.85,3.39.65,6.15,1.88,9.7,2.37,3.11.43,6.7.24,9.06-.89,1.69-.81-.82-2.13-2.52-1.31-2.8,1.34-6.95.31-9.73-.48-3.47-.99-7.01-2.02-11.24-1.76-7.69.48-11.71,4.78-7.42,7.82,1.33.94,4.66.13,3.32-.83h0Z"/>
  <ellipse class="cls-2" cx="267.33" cy="738.63" rx="3.75" ry="1.78"/>
  <path class="cls-8" d="m3.36,289.96c-5.15-21.65-4.29-42.97,4.53-63.85.19-2.69,2.53-4.72,5.22-4.53l48.22,3.42c2.69.19,4.72,2.53,4.53,5.22l-4.53,63.85c-.19,2.69-2.53,4.72-5.22,4.53l-48.22-3.42c-2.69-.19-4.72-2.53-4.53-5.22Z"/>
  <path class="cls-5" d="m8.43,270.93c-4.12-10.67-1.49-25.34,2.91-41.05.18-2.52,2.37-4.42,4.89-4.24l41.44,2.94c2.52.18,4.42,2.37,4.24,4.89l-4.03,56.82c-.18,2.52-2.37,4.42-4.89,4.24l-25.67-1.82c-11.22-.81-19.68-10.55-18.89-21.78Z"/>
  <path class="cls-8" d="m37.12,273.72c-1.27-.22-2.53-.44-3.8-.65.58-1.38.92-2.84.99-4.34.6-7.99.66-16.06.98-24.07-.02-.84-.72-1.5-1.56-1.47-.37.01-.73.16-1,.41-3.18,2.63-6.36,5.27-9.54,7.9-1.49,1.23.64,3.34,2.12,2.12,2.28-1.89,4.56-3.78,6.85-5.67-.21,5.25-.42,10.49-.63,15.74-.1,2.52.21,5.58-.83,7.94-.14.32-.32.62-.55.89-1.4-.24-2.8-.48-4.2-.72-1.01-.17-2.29.67-1.85,1.85.96,2.56,3.81,3.37,6.25,2.38.21-.1.42-.21.62-.33l5.34.92c1.89.32,2.7-2.57.8-2.89Z"/>
  <path class="cls-8" d="m178.36,295.96c-5.15-21.65-4.29-42.97,4.53-63.85.19-2.69,2.53-4.72,5.22-4.53l48.22,3.42c2.69.19,4.72,2.53,4.53,5.22l-4.53,63.85c-.19,2.69-2.53,4.72-5.22,4.53l-48.22-3.42c-2.69-.19-4.72-2.53-4.53-5.22Z"/>
  <path class="cls-5" d="m183.43,276.93c-4.12-10.67-1.49-25.34,2.91-41.05.18-2.52,2.37-4.42,4.89-4.24l41.44,2.94c2.52.18,4.42,2.37,4.24,4.89l-4.03,56.82c-.18,2.52-2.37,4.42-4.89,4.24l-25.67-1.82c-11.22-.81-19.68-10.55-18.89-21.78Z"/>
  <path class="cls-8" d="m210.48,266.1c.55-.26,1.07-.57,1.56-.94,2.63-2.17,3.73-5.67,2.81-8.95-1.94-7.14-10.49-7.19-16.39-6.33-1.9.28-1.09,3.17.8,2.89,3.98-.58,10.22-1.05,12.35,3.3,1,2.09.64,4.57-.91,6.28-.91.91-2.1,1.48-3.38,1.61-1.24-.54-2.58-.79-3.93-.73-1.39.07-2.16,2.09-.76,2.8,1.25.62,2.62.94,4.01.95,2.36,1.14,3.81,3.58,3.67,6.2-.56,3.67-3.98,6.2-7.65,5.64-.01,0-.02,0-.04,0-1.89-.38-2.69,2.51-.8,2.89,5.29,1,10.39-2.48,11.39-7.78.03-.14.05-.28.07-.41.24-2.76-.79-5.49-2.8-7.4Z"/>
  <polygon class="cls-7" points="272.1 705.44 255.14 705.44 247.07 640 272.11 640 272.1 705.44"/>
  <path class="cls-9" d="m272.7,723.14h-52.17v-.66c0-11.22,9.09-20.31,20.31-20.31h0l9.53-7.23,17.78,7.23h4.55s0,20.97,0,20.97Z"/>
  <polygon class="cls-7" points="350.1 741.44 333.14 741.44 325.07 676 350.11 676 350.1 741.44"/>
  <path class="cls-9" d="m350.7,759.14h-52.17v-.66c0-11.22,9.09-20.31,20.31-20.31h0l9.53-7.23,17.78,7.23h4.55s0,20.97,0,20.97Z"/>
  <path class="cls-7" d="m141.36,218.08c4.44,4.97,12.07,5.39,17.04.95.48-.43.93-.9,1.33-1.4l57.85,16.47,8.49-14.88-68.85-19.06c-5.47-3.79-12.98-2.43-16.77,3.04-3.17,4.58-2.8,10.73.91,14.89h0Z"/>
  <path class="cls-3" d="m291.8,355.82l-60.87,139.18-7,22,21.16,154.42,34.16-1.67-.08-19.8s-8.13-4.41-.03-6.8,7.76-8.47-.07-17.43-.37-94.71-.37-94.71c0,0,32.24-30.87,28.73-38.94s3.01-8.06,3.01-8.06c0,0,6.95-1.24,7.22-4.62s5.42-10.17,5.42-10.17l-1.8,237.82h29.47s13.48-22.39,10.83-27.21-6.35-5.29,0-11.06,15.67-1.05,11.51-11.91-3.09-128.03-3.09-128.03c0,0,16.4-68,6.27-72.61s-5.09-3.97.89-10.29-4.16-5.75.91-10.54,5.28-61.15,5.28-61.15l-91.54-18.41Z"/>
  <path class="cls-1" d="m387.92,395c-42.67-.1-79.28,9.49-121.95,9.39,2.78-19.24,12.5-49.4,15.27-68.64,3.91-27.07.88-43.22,4.78-70.29.39-2.65.77-5.29,1.15-7.94,1.54-10.7-2.15-21.4,4.47-32.7,2.82-4.82,7.51-9.74,15.28-14.82,16.14,1.64,15.86-5.64,32-4l5.34,10.64c.68,4.04,3.13,6.67,6.45,8.66,6.83,4.13,17.35,5.57,23.67,11.16,7.94,7.02,7.41,18.25,5.05,29.21-.84,3.9-1.91,7.76-2.92,11.39-8.13,29.25,2.26,51.56,10.73,78.69.8,2.57-6.81,12.52-6,15,1.37,4.2,6.26,9.43,5.48,12.26-.96,3.51-1.93,6.82,1.19,11.99Z"/>
  <path class="cls-1" d="m379.43,265.67l-93.41-.21h-3s-110.78-40.71-110.78-40.71l14.18.48,6.58-15.17,3.17-7.29,65.29,21.82,30.18.23,56.9.42c.73.01,1.45.03,2.17.06,6.83,4.13,17.35,5.57,23.67,11.16,7.94,7.02,7.41,18.25,5.05,29.21Z"/>
  <circle class="cls-7" cx="315.62" cy="172.74" r="30.36"/>
  <path class="cls-3" d="m311.3,198.83l2.47,7.91c5.48-2.71,21.04-6.46,25.6-10.53s8.1-9.68,8.31-15.79c.11-3.16-.65-6.34-.13-9.45.59-3.52,2.76-6.57,3.76-10,1.92-7.4-1.69-15.13-8.6-18.41-5.03-2.21-10.79-1.59-16.26-2.13s-11.57-3.01-13.11-8.29c-.58-1.97-.51-4.3-2.27-5.59-1.83-1.23-4.3-.87-5.71.83-.08.09-.16.19-.23.28-4.63,5.81-13.36,6.24-17.92.38-.3-.38-.59-.77-.86-1.18-4.01,3.76-4.22,10.05-.46,14.06.02.02.05.05.07.07-3.55,0-6.64-2.43-7.46-5.89-2.09,2.89-4.24,5.91-4.92,9.42s.58,7.66,3.79,9.21c1.64.65,3.4.94,5.17.85-8.3,9.82-3.32,9.53,13.49.26,8.34.16,5.04,7.91,5.15,16.24h0c3.92-.38,7.97-.75,11.68.91,1.73.73,3.19,1.98,4.16,3.58,2.45,4.21.02,8.59-2.14,12.42-1.84,3.27-3.59,7.22-2.06,10.65"/>
  <path class="cls-7" d="m256.05,453.31c5.83-3.22,7.95-10.57,4.72-16.4-.31-.57-.67-1.1-1.07-1.61l28.96-52.72-12.61-11.6-33.94,62.87c-4.92,4.49-5.27,12.11-.78,17.02,3.75,4.11,9.84,5.12,14.72,2.43h0Z"/>
  <path class="cls-1" d="m326.68,206.77l-6.75,120.92-32.52,75.99-21.17,28.07,2.41-12.72-14.59-7.3-1.37-.68,19.42-49.19,5.86-14.84,2.73-44.67,2.58-42.24c.9-14.7,7.91-28.34,19.34-37.63l16.2-13.16,7.86-2.55Z"/>
  <path class="cls-8" d="m99.36,206.96c-5.15-21.65-4.29-42.97,4.53-63.85.19-2.69,2.53-4.72,5.22-4.53l48.22,3.42c2.69.19,4.72,2.53,4.53,5.22l-4.53,63.85c-.19,2.69-2.53,4.72-5.22,4.53l-48.22-3.42c-2.69-.19-4.72-2.53-4.53-5.22Z"/>
  <path class="cls-5" d="m104.43,187.93c-4.12-10.67-1.49-25.34,2.91-41.05.18-2.52,2.37-4.42,4.89-4.24l41.44,2.94c2.52.18,4.42,2.37,4.24,4.89l-4.03,56.82c-.18,2.52-2.37,4.42-4.89,4.24l-25.67-1.82c-11.22-.81-19.68-10.55-18.89-21.78Z"/>
  <path class="cls-1" d="m129.91,159.34c-4.25-1.47-8.97,1.89-9.45,6.24-.55,4.94,4.76,8.84,9.36,7.49,1.85-.54,1.06-3.44-.8-2.89-3.37.98-6.97-2.66-5.03-5.91.9-1.61,2.7-2.49,4.53-2.21,1.53.42,2.77,1.55,3.34,3.03,1.65,3.73-.31,7.51-2.92,10.22-1.49,1.54-3.23,2.75-4.83,4.15-1.57,1.19-2.57,2.99-2.75,4.95.09,2.23,1.4,4.22,3.41,5.18,2.56,1.32,5.47.9,8.19.46,1.9-.31,1.09-3.2-.8-2.89-2.38.38-5.94.96-7.45-1.52-1.29-2.12,1.37-3.99,2.82-5.12,3.64-2.84,7.33-6.51,7.87-11.34.45-3.96-1.56-8.48-5.51-9.85Z"/>
  <path class="cls-4" d="m178.45,760c0,.66.53,1.19,1.18,1.19h253.3c.66,0,1.19-.53,1.19-1.19s-.53-1.19-1.19-1.19h-253.29c-.66,0-1.19.53-1.19,1.18h0Z"/>
  <path class="cls-6" d="m50.94,102.53c-1.25,18.49-.65,39.48,13.71,53.2,3.36,3.24,7.38,5.73,11.78,7.3,1.82.64,2.61-2.25.8-2.89-7.37-2.6-13.18-8.31-17.04-14.99-4.53-7.83-6.26-16.86-6.64-25.82-.18-5.6-.04-11.21.4-16.8.13-1.93-2.87-1.92-3,0h0Z"/>
  <path class="cls-6" d="m73.3,144.85c3.56,1.65,7.29,3.34,10.1,6.15,2.57,2.56,4.36,6.3,3.32,9.96-1.71,6-9.31,8.26-14.61,9.69-.79.25-1.23,1.09-.98,1.88.24.75,1.01,1.19,1.78,1.01,5.33-1.44,11.31-3.45,14.79-8.01,4.12-5.4,2.16-12.52-2.46-16.93-2.98-2.84-6.73-4.62-10.43-6.34-1.74-.81-3.27,1.78-1.51,2.59h0Z"/>
</svg>